<?xml version="1.0" standalone="no"?>
<!DOCTYPE svg PUBLIC "-//W3C//DTD SVG 20010904//EN"
 "http://www.w3.org/TR/2001/REC-SVG-20010904/DTD/svg10.dtd">
<svg version="1.0" xmlns="http://www.w3.org/2000/svg"
 width="200.000000pt" height="192.000000pt" viewBox="0 0 200.000000 192.000000"
 preserveAspectRatio="xMidYMid meet">
<metadata>
Created by potrace 1.10, written by Peter Selinger 2001-2011
</metadata>
<g transform="translate(0.000000,192.000000) scale(0.100000,-0.100000)"
fill="#4f4f4f" stroke="none">
<path d="M851 1869 c-85 -14 -229 -66 -307 -110 -240 -137 -411 -382 -455
-653 -17 -106 -7 -300 21 -395 77 -267 253 -474 505 -592 86 -41 123 -47 143
-27 8 8 12 46 12 103 l0 92 -87 -1 c-128 -1 -182 31 -236 139 -27 55 -59 93
-100 120 -61 39 -8 70 65 37 31 -13 58 -38 89 -78 48 -64 111 -104 164 -104
45 0 105 19 105 34 0 7 11 35 25 61 13 27 23 50 22 50 -1 1 -27 7 -57 13 -140
27 -250 99 -297 193 -75 150 -70 358 12 465 23 31 25 38 17 89 -8 51 -2 126
14 177 5 18 12 20 52 15 25 -3 82 -24 128 -47 l83 -42 64 11 c82 14 253 14
332 0 l61 -12 86 43 c47 23 106 44 130 47 l45 5 13 -46 c8 -30 11 -77 8 -131
-4 -61 -2 -87 7 -95 7 -6 25 -38 40 -72 34 -75 42 -166 26 -264 -32 -187 -135
-290 -331 -332 l-78 -17 19 -23 c31 -39 39 -90 39 -258 0 -111 4 -164 12 -172
20 -20 57 -13 145 28 266 124 456 364 515 649 26 124 21 317 -12 431 -65 233
-236 449 -443 564 -173 95 -406 136 -596 105z"/>
<path d="M400 560 c0 -5 5 -10 10 -10 6 0 10 5 10 10 0 6 -4 10 -10 10 -5 0
-10 -4 -10 -10z"/>
<path d="M445 520 c3 -5 8 -10 11 -10 2 0 4 5 4 10 0 6 -5 10 -11 10 -5 0 -7
-4 -4 -10z"/>
<path d="M480 476 c0 -9 5 -16 10 -16 6 0 10 4 10 9 0 6 -4 13 -10 16 -5 3
-10 -1 -10 -9z"/>
<path d="M520 425 c0 -8 7 -15 15 -15 8 0 15 4 15 9 0 5 -7 11 -15 15 -9 3
-15 0 -15 -9z"/>
<path d="M586 393 c-3 -3 -3 -10 0 -14 7 -12 34 -11 34 0 0 11 -26 22 -34 14z"/>
<path d="M730 380 c0 -5 7 -10 15 -10 8 0 15 5 15 10 0 6 -7 10 -15 10 -8 0
-15 -4 -15 -10z"/>
<path d="M660 370 c0 -5 7 -10 15 -10 8 0 15 5 15 10 0 6 -7 10 -15 10 -8 0
-15 -4 -15 -10z"/>
</g>
</svg>
