<?xml version="1.0" standalone="no"?>
<!DOCTYPE svg PUBLIC "-//W3C//DTD SVG 20010904//EN"
 "http://www.w3.org/TR/2001/REC-SVG-20010904/DTD/svg10.dtd">
<svg version="1.0" xmlns="http://www.w3.org/2000/svg"
 width="200.000000pt" height="200.000000pt" viewBox="0 0 200.000000 200.000000"
 preserveAspectRatio="xMidYMid meet">
<metadata>
Created by potrace 1.10, written by Peter Selinger 2001-2011
</metadata>
<g transform="translate(0.000000,200.000000) scale(0.100000,-0.100000)"
fill="#4f4f4f" stroke="none">
<path d="M845 1765 c-300 -56 -543 -284 -621 -580 -24 -94 -25 -284 -1 -375
25 -94 97 -235 161 -311 100 -121 253 -218 413 -260 109 -29 287 -29 398 0
274 71 498 291 572 561 24 90 24 300 0 390 -64 236 -250 445 -476 533 -140 54
-300 70 -446 42z m292 -101 c314 -65 552 -349 553 -662 1 -312 -216 -586 -530
-668 -86 -23 -244 -23 -330 0 -371 96 -595 460 -508 826 5 25 27 81 48 125
137 287 454 444 767 379z"/>
<path d="M1010 1304 c0 -226 2 -274 15 -284 38 -32 19 -90 -31 -90 -33 0 -59
42 -44 69 6 12 15 21 20 21 6 0 10 104 10 273 l-1 272 -28 -75 c-34 -91 -47
-117 -123 -243 l-59 -97 24 -320 c16 -210 29 -325 37 -335 33 -40 177 -57 266
-30 86 25 80 2 105 365 l23 325 -64 105 c-36 58 -84 152 -107 210 l-43 105 0
-271z"/>
</g>
</svg>
