<?xml version="1.0" standalone="no"?>
<!DOCTYPE svg PUBLIC "-//W3C//DTD SVG 20010904//EN"
 "http://www.w3.org/TR/2001/REC-SVG-20010904/DTD/svg10.dtd">
<svg version="1.0" xmlns="http://www.w3.org/2000/svg"
 width="200.000000pt" height="155.000000pt" viewBox="0 0 200.000000 155.000000"
 preserveAspectRatio="xMidYMid meet">
<metadata>
Created by potrace 1.10, written by Peter Selinger 2001-2011
</metadata>
<g transform="translate(0.000000,155.000000) scale(0.100000,-0.100000)"
fill="#ffffff" stroke="none">
<path d="M43 1506 l-28 -24 -3 -696 c-3 -761 -4 -740 55 -765 21 -8 269 -11
950 -9 l922 3 23 23 23 23 3 703 2 704 -26 31 -26 31 -933 0 -934 0 -28 -24z
m1702 -175 c-6 -5 -179 -140 -385 -300 -229 -178 -378 -287 -385 -282 -5 5
-167 131 -360 281 -192 150 -359 281 -370 291 -19 19 -5 19 745 19 470 0 760
-4 755 -9z m55 -671 l0 -460 -800 0 -800 0 0 450 c0 248 3 450 8 450 4 0 169
-127 367 -281 198 -155 370 -285 383 -290 13 -5 34 -6 48 -3 13 4 194 138 402
300 207 161 380 294 385 294 4 0 7 -207 7 -460z"/>
</g>
</svg>
