<?xml version="1.0" standalone="no"?>
<!DOCTYPE svg PUBLIC "-//W3C//DTD SVG 20010904//EN"
 "http://www.w3.org/TR/2001/REC-SVG-20010904/DTD/svg10.dtd">
<svg version="1.0" xmlns="http://www.w3.org/2000/svg"
 width="121.000000pt" height="112.000000pt" viewBox="0 0 121.000000 112.000000"
 preserveAspectRatio="xMidYMid meet">
<metadata>
Created by potrace 1.10, written by Peter Selinger 2001-2011
</metadata>
<g transform="translate(0.000000,112.000000) scale(0.100000,-0.100000)"
fill="#ffffff" stroke="none">
<path d="M805 1035 c-5 -2 -27 -6 -48 -10 -48 -8 -122 -73 -148 -130 -11 -24
-19 -64 -19 -97 0 -67 4 -65 -99 -43 -137 29 -241 84 -342 182 l-55 54 -12
-26 c-36 -79 -17 -187 45 -255 37 -42 32 -48 -30 -26 -33 12 -37 12 -37 -3 0
-70 70 -169 143 -201 l38 -17 -26 -7 c-15 -4 -35 -4 -46 -1 -53 17 16 -90 84
-129 24 -14 52 -26 63 -26 47 -1 47 -18 -1 -45 -69 -41 -120 -57 -210 -64
l-80 -7 75 -36 c94 -45 170 -61 285 -61 101 0 186 15 260 46 233 97 387 310
417 576 11 93 11 94 55 134 24 22 48 48 53 58 9 16 6 16 -37 3 -69 -21 -83
-18 -52 9 31 26 73 86 66 93 -3 3 -18 -1 -34 -9 -15 -8 -46 -20 -67 -25 -36
-10 -42 -9 -80 18 -48 34 -128 56 -161 45z"/>
</g>
</svg>
